<svg height="200px" width="200px" version="1.1" id="_x32_" xmlns="http://www.w3.org/2000/svg" xmlns:xlink="http://www.w3.org/1999/xlink" viewBox="0 0 512 512" xml:space="preserve" fill="#ffffff"><g id="SVGRepo_bgCarrier" stroke-width="0"></g><g id="SVGRepo_tracerCarrier" stroke-linecap="round" stroke-linejoin="round"></g><g id="SVGRepo_iconCarrier"> <style type="text/css"> .st0{fill:#ffffff;} </style> <g> <path class="st0" d="M459.949,39.433C434.165,14.134,399.516,0,363.468,0c-0.874,0-1.74,0.007-2.614,0.027l-0.6,0.014 L105.216,28.18l-94.44-16.304V276.85l94.413-15.792l138.991,15.096v170.63c0,8.968,1.822,17.58,5.132,25.388 c4.954,11.724,13.205,21.647,23.613,28.677c10.387,7.03,23.005,11.152,36.471,11.152c8.968,0,17.58-1.829,25.388-5.132 c11.718-4.961,21.648-13.212,28.677-23.613c7.03-10.394,11.151-23.012,11.151-36.471V288.315 c31.981-2.593,62.227-16.256,85.336-38.935c26.398-25.913,41.275-61.34,41.275-98.33v-13.288 C501.224,100.774,486.346,65.339,459.949,39.433z M95.143,236.01l-57.996,9.691V43.186l57.996,10.019V236.01z M348.243,446.784 c0,5.398-1.092,10.476-3.044,15.117c-2.942,6.954-7.89,12.912-14.093,17.102c-6.218,4.19-13.623,6.627-21.71,6.627 c-5.405,0-10.483-1.085-15.124-3.044c-6.947-2.942-12.912-7.889-17.102-14.093c-4.19-6.217-6.62-13.615-6.627-21.709V279.02 l77.699,8.449V446.784z M386.945,259.904c-7.664,1.658-15.526,2.532-23.477,2.532c-0.512,0-1.044,0-1.57-0.014l-240.385-26.111 v-183.4l240.406-26.527c0.519-0.014,1.038-0.014,1.549-0.014c7.951,0,15.813,0.874,23.477,2.532V259.904z M474.854,151.05 c0,29.913-12.025,58.563-33.373,79.507c-8.36,8.197-17.888,14.926-28.172,20.072V38.177c10.285,5.146,19.812,11.868,28.172,20.078 c21.348,20.944,33.373,49.595,33.373,79.507V151.05z"></path> <path class="st0" d="M203.266,305.54v36.335c0,6.469,5.248,11.71,11.718,11.71h23.436v-59.763h-23.436 C208.515,293.822,203.266,299.071,203.266,305.54z"></path> </g> </g></svg>